<svg xmlns="http://www.w3.org/2000/svg" viewBox="0 0 512 512" role="img" aria-label="Vantoryx icon">
  <defs>
    <linearGradient id="g" x1="0" x2="1" y1="0" y2="1">
      <stop offset="0" stop-color="#6EE7F9"/>
      <stop offset="1" stop-color="#A78BFA"/>
    </linearGradient>
    <filter id="s" x="-20%" y="-20%" width="140%" height="140%">
      <feDropShadow dx="0" dy="12" stdDeviation="14" flood-color="#000" flood-opacity=".35"/>
    </filter>
  </defs>
  <rect width="512" height="512" rx="120" fill="#0B0C10"/>
  <g filter="url(#s)">
    <path d="M256 88c93 0 168 75 168 168s-75 168-168 168S88 349 88 256 163 88 256 88Z" fill="none" stroke="url(#g)" stroke-width="28"/>
    <path d="M256 154c56 0 102 46 102 102s-46 102-102 102-102-46-102-102 46-102 102-102Z" fill="#0B0C10" stroke="url(#g)" stroke-width="18" opacity=".9"/>
    <path d="M170 300l86-160 86 160h-32l-54-104-54 104h-32Z" fill="url(#g)"/>
  </g>
</svg>
